<svg xmlns="http://www.w3.org/2000/svg" xmlns:xlink="http://www.w3.org/1999/xlink" width="500" zoomAndPan="magnify" viewBox="0 0 375 374.999991" height="500" preserveAspectRatio="xMidYMid meet" version="1.0"><defs><g/><clipPath id="3c64d6c05c"><path d="M 53.257812 154.273438 L 124 154.273438 L 124 219 L 53.257812 219 Z M 53.257812 154.273438 " clip-rule="nonzero"/></clipPath><clipPath id="b57934d10e"><path d="M 53.257812 190.0625 L 83.921875 190.0625 L 83.921875 220.726562 L 53.257812 220.726562 Z M 53.257812 190.0625 " clip-rule="nonzero"/></clipPath><clipPath id="628e8edfb2"><path d="M 68.589844 190.0625 C 60.121094 190.0625 53.257812 196.925781 53.257812 205.394531 C 53.257812 213.863281 60.121094 220.726562 68.589844 220.726562 C 77.054688 220.726562 83.921875 213.863281 83.921875 205.394531 C 83.921875 196.925781 77.054688 190.0625 68.589844 190.0625 Z M 68.589844 190.0625 " clip-rule="nonzero"/></clipPath></defs><g clip-path="url(#3c64d6c05c)"><path fill="#29314f" d="M 81.136719 156.183594 C 83.386719 154.882812 85.851562 154.273438 88.285156 154.28125 C 90.722656 154.273438 93.183594 154.882812 95.4375 156.183594 C 96.894531 157.027344 98.148438 158.089844 99.183594 159.3125 L 99.21875 159.355469 C 99.253906 159.398438 99.289062 159.441406 99.324219 159.484375 C 99.8125 160.078125 100.265625 160.722656 100.660156 161.417969 L 121.355469 197.253906 C 125.285156 204.066406 122.933594 212.851562 116.125 216.789062 C 109.3125 220.71875 100.527344 218.359375 96.589844 211.550781 L 93.144531 205.574219 C 90.253906 200.574219 86.59375 192.710938 82.820312 188.980469 C 78.796875 185.015625 73.277344 182.5625 67.1875 182.5625 C 65.941406 182.5625 64.714844 182.671875 63.519531 182.867188 L 74.453125 163.9375 C 75.316406 162.4375 76.144531 160.820312 77.25 159.484375 C 77.285156 159.441406 77.320312 159.398438 77.355469 159.355469 L 77.390625 159.3125 C 78.421875 158.089844 79.675781 157.027344 81.136719 156.183594 Z M 67.1875 190.898438 C 74.875 190.898438 81.113281 197.136719 81.113281 204.824219 C 81.113281 212.519531 74.875 218.75 67.1875 218.75 C 59.5 218.75 53.261719 212.519531 53.261719 204.824219 C 53.261719 197.136719 59.5 190.898438 67.1875 190.898438 Z M 67.1875 190.898438 " fill-opacity="1" fill-rule="evenodd"/></g><g clip-path="url(#b57934d10e)"><g clip-path="url(#628e8edfb2)"><path fill="#5b5e8b" d="M 53.257812 190.0625 L 83.921875 190.0625 L 83.921875 220.726562 L 53.257812 220.726562 Z M 53.257812 190.0625 " fill-opacity="1" fill-rule="nonzero"/></g></g><g fill="#1f2020" fill-opacity="1"><g transform="translate(135.795018, 194.249987)"><g><path d="M 0.46875 0 L 9.171875 -21.4375 L 9.609375 -21.4375 L 18.3125 0 L 13.65625 0 L 12.8125 -2.234375 L 5.96875 -2.234375 L 5.15625 0 Z M 7.46875 -6.109375 L 11.28125 -6.109375 L 9.40625 -11.484375 Z M 7.46875 -6.109375 "/></g></g></g><g fill="#1f2020" fill-opacity="1"><g transform="translate(162.41525, 194.249987)"><g><path d="M 13.015625 0 L 2.3125 0 L 2.3125 -20.6875 L 12.671875 -20.6875 L 12.671875 -16.546875 L 6.453125 -16.546875 L 6.453125 -12.421875 L 11.890625 -12.421875 L 11.890625 -8.28125 L 6.453125 -8.28125 L 6.453125 -4.140625 L 13.015625 -4.140625 Z M 13.015625 0 "/></g></g></g><g fill="#1f2020" fill-opacity="1"><g transform="translate(184.72439, 194.249987)"><g><path d="M 12.609375 0 L 8.453125 -7.90625 L 6.453125 -7.90625 L 6.453125 0 L 2.3125 0 L 2.3125 -20.6875 L 10.46875 -20.6875 C 11.707031 -20.6875 12.753906 -20.429688 13.609375 -19.921875 C 14.472656 -19.410156 15.144531 -18.742188 15.625 -17.921875 C 16.101562 -17.109375 16.398438 -16.222656 16.515625 -15.265625 C 16.640625 -14.304688 16.570312 -13.367188 16.3125 -12.453125 C 16.050781 -11.535156 15.601562 -10.722656 14.96875 -10.015625 C 14.34375 -9.316406 13.519531 -8.820312 12.5 -8.53125 L 17.296875 0 Z M 6.453125 -11.921875 L 10.09375 -11.921875 C 10.65625 -11.921875 11.101562 -12.070312 11.4375 -12.375 C 11.78125 -12.6875 12.007812 -13.070312 12.125 -13.53125 C 12.238281 -14 12.238281 -14.460938 12.125 -14.921875 C 12.007812 -15.390625 11.78125 -15.773438 11.4375 -16.078125 C 11.101562 -16.390625 10.65625 -16.546875 10.09375 -16.546875 L 6.453125 -16.546875 Z M 6.453125 -11.921875 "/></g></g></g><g fill="#1f2020" fill-opacity="1"><g transform="translate(210.18728, 194.249987)"><g><path d="M 12.265625 0.296875 C 10.492188 0.296875 8.9375 0 7.59375 -0.59375 C 6.25 -1.195312 5.132812 -2.003906 4.25 -3.015625 C 3.363281 -4.035156 2.695312 -5.179688 2.25 -6.453125 C 1.8125 -7.722656 1.59375 -9.03125 1.59375 -10.375 C 1.59375 -11.71875 1.8125 -13.023438 2.25 -14.296875 C 2.695312 -15.566406 3.363281 -16.707031 4.25 -17.71875 C 5.132812 -18.738281 6.25 -19.546875 7.59375 -20.140625 C 8.9375 -20.734375 10.492188 -21.03125 12.265625 -21.03125 C 14.046875 -21.03125 15.601562 -20.734375 16.9375 -20.140625 C 18.28125 -19.546875 19.394531 -18.738281 20.28125 -17.71875 C 21.164062 -16.707031 21.832031 -15.566406 22.28125 -14.296875 C 22.726562 -13.023438 22.953125 -11.71875 22.953125 -10.375 C 22.953125 -9.03125 22.726562 -7.722656 22.28125 -6.453125 C 21.832031 -5.179688 21.164062 -4.035156 20.28125 -3.015625 C 19.394531 -2.003906 18.28125 -1.195312 16.9375 -0.59375 C 15.601562 0 14.046875 0.296875 12.265625 0.296875 Z M 12.265625 -4 C 13.441406 -4 14.453125 -4.226562 15.296875 -4.6875 C 16.148438 -5.144531 16.828125 -5.753906 17.328125 -6.515625 C 17.835938 -7.285156 18.175781 -8.125 18.34375 -9.03125 C 18.519531 -9.9375 18.519531 -10.84375 18.34375 -11.75 C 18.175781 -12.65625 17.835938 -13.488281 17.328125 -14.25 C 16.828125 -15.007812 16.148438 -15.617188 15.296875 -16.078125 C 14.453125 -16.546875 13.441406 -16.78125 12.265625 -16.78125 C 11.085938 -16.78125 10.070312 -16.546875 9.21875 -16.078125 C 8.375 -15.617188 7.703125 -15.007812 7.203125 -14.25 C 6.703125 -13.488281 6.363281 -12.65625 6.1875 -11.75 C 6.019531 -10.84375 6.019531 -9.9375 6.1875 -9.03125 C 6.363281 -8.125 6.703125 -7.285156 7.203125 -6.515625 C 7.703125 -5.753906 8.375 -5.144531 9.21875 -4.6875 C 10.070312 -4.226562 11.085938 -4 12.265625 -4 Z M 12.265625 -4 "/></g></g></g><g fill="#1f2020" fill-opacity="1"><g transform="translate(242.420621, 194.249987)"><g><path d="M 11.8125 -11.921875 L 19.96875 -21.015625 L 21.265625 -21.015625 L 21.265625 0 L 17.078125 0 L 17.109375 -11.546875 L 11.8125 -5.984375 L 6.515625 -11.546875 L 6.515625 0 L 2.3125 0 L 2.3125 -21.015625 L 3.640625 -21.015625 Z M 11.8125 -11.921875 "/></g></g></g><g fill="#1f2020" fill-opacity="1"><g transform="translate(273.757014, 194.249987)"><g><path d="M 0.46875 0 L 9.171875 -21.4375 L 9.609375 -21.4375 L 18.3125 0 L 13.65625 0 L 12.8125 -2.234375 L 5.96875 -2.234375 L 5.15625 0 Z M 7.46875 -6.109375 L 11.28125 -6.109375 L 9.40625 -11.484375 Z M 7.46875 -6.109375 "/></g></g></g><g fill="#1f2020" fill-opacity="1"><g transform="translate(300.377252, 194.249987)"><g><path d="M 0.171875 0 L 6.6875 -11.03125 L 1.078125 -20.71875 L 6.078125 -20.71875 L 9.203125 -14.953125 L 12.296875 -20.71875 L 17.1875 -20.71875 L 11.546875 -11.03125 L 18.0625 0 L 13.171875 0 L 9.203125 -7.09375 L 5.203125 0 Z M 0.171875 0 "/></g></g></g></svg>